<svg width="404" height="403" viewBox="0 0 404 403" fill="none" xmlns="http://www.w3.org/2000/svg">
<g clip-path="url(#clip0_4544_5533)">
<g opacity="0.25">
<path d="M165.693 199.336C165.693 199.28 165.701 199.223 165.701 199.167C165.701 199.126 165.701 199.086 165.705 199.046C165.701 199.143 165.697 199.239 165.693 199.34V199.336Z" fill="#E1E1E1"/>
<path d="M368.354 306.933H328.147L321.058 334.631C318.334 345.274 308.742 352.722 297.761 352.722H115.415C104.421 352.722 94.834 345.274 92.1137 334.631L76.5902 273.964C76.0502 282.797 72.2499 290.753 66.3701 296.636C60.0067 303 51.2254 306.929 41.5211 306.929H35.6494C25.9452 306.929 17.1598 310.862 10.8004 317.222C4.43706 323.577 0.507812 332.362 0.507812 342.067C0.507812 361.475 16.245 377.212 35.6534 377.212H368.362C378.066 377.212 386.852 373.279 393.211 366.92C399.575 360.556 403.504 351.775 403.504 342.071C403.504 322.662 387.767 306.933 368.358 306.933H368.354Z" fill="#E1E1E1"/>
<path d="M166.509 192.638C166.521 192.582 166.533 192.525 166.545 192.469C166.549 192.445 166.553 192.417 166.561 192.392C166.545 192.473 166.525 192.558 166.509 192.638Z" fill="#E1E1E1"/>
<path d="M368.354 166.359H334.325C314.917 166.359 299.187 150.625 299.187 131.213C299.187 129.883 299.268 128.569 299.413 127.276H251.517L237.798 139.45C234.804 142.106 230.073 139.982 230.073 135.976V127.276H215.122C210.024 127.276 205.889 123.141 205.889 118.043V64.3189C205.889 59.221 210.024 55.0862 215.122 55.0862H308.984C314.082 55.0862 318.217 59.221 318.217 64.3189V99.9884C323.045 97.4939 328.518 96.0753 334.329 96.0753H368.358C378.063 96.0753 386.848 92.142 393.207 85.7827C399.571 79.4193 403.5 70.638 403.5 60.9337C403.5 41.5252 387.763 25.7881 368.354 25.7881H35.6456C25.9414 25.7881 17.156 29.7214 10.7966 36.0807C4.43328 42.44 0.5 51.2254 0.5 60.9297C0.5 80.3382 16.2371 96.0753 35.6456 96.0753H73.3302C92.7386 96.0753 108.476 111.808 108.476 131.213C108.476 140.917 104.543 149.707 98.1832 156.062C91.8198 162.425 83.0384 166.354 73.3342 166.354H35.6497C25.9454 166.354 17.16 170.288 10.8007 176.647C4.43731 183.002 0.50806 191.792 0.50806 201.496C0.50806 220.905 16.2452 236.634 35.6537 236.634H41.5254C54.0345 236.634 65.0122 243.178 71.2386 253.024L68.3853 241.869L64.2143 225.571H57.0772C50.871 225.571 45.8375 220.538 45.8375 214.332V187.56C45.8375 181.358 50.8669 176.321 57.0772 176.321H170.203L129.613 108.629C127.316 104.788 128.561 99.8152 132.398 97.514L149.836 87.0602C153.672 84.7631 158.649 86.0043 160.946 89.8449L203.116 160.172C203.153 160.172 203.189 160.172 203.225 160.164C203.713 160.124 204.2 160.092 204.692 160.072C204.821 160.068 204.946 160.064 205.075 160.056C205.542 160.039 206.01 160.027 206.477 160.027C206.514 160.027 206.554 160.027 206.59 160.027C206.727 160.027 206.86 160.031 206.997 160.035C207.235 160.035 207.473 160.039 207.71 160.048C207.892 160.052 208.073 160.06 208.255 160.068C208.456 160.076 208.658 160.084 208.859 160.096C209.044 160.108 209.23 160.12 209.419 160.132C209.613 160.144 209.81 160.16 210.004 160.176C210.189 160.193 210.374 160.209 210.56 160.225C210.753 160.245 210.951 160.265 211.144 160.285C211.325 160.305 211.507 160.326 211.688 160.346C211.898 160.37 212.107 160.402 212.317 160.43C212.478 160.455 212.643 160.475 212.804 160.499C213.155 160.551 213.506 160.612 213.852 160.672C214.009 160.7 214.171 160.733 214.328 160.765C214.537 160.805 214.743 160.845 214.952 160.886C215.122 160.922 215.295 160.958 215.464 160.999C215.658 161.043 215.851 161.083 216.045 161.132C216.218 161.172 216.387 161.212 216.556 161.257C216.75 161.305 216.939 161.353 217.133 161.406C217.298 161.45 217.467 161.494 217.632 161.543C217.834 161.599 218.031 161.656 218.229 161.716C218.382 161.76 218.539 161.805 218.692 161.853C218.954 161.934 219.212 162.018 219.47 162.103C219.635 162.155 219.796 162.212 219.958 162.268C220.216 162.357 220.478 162.449 220.731 162.542C220.872 162.594 221.014 162.651 221.159 162.703C221.36 162.78 221.562 162.856 221.763 162.937C221.912 162.997 222.057 163.058 222.206 163.118C222.4 163.199 222.593 163.28 222.783 163.36C222.928 163.425 223.073 163.485 223.218 163.55C223.415 163.638 223.613 163.727 223.81 163.82C223.943 163.88 224.076 163.945 224.209 164.005C224.439 164.114 224.669 164.227 224.894 164.344C224.991 164.392 225.088 164.436 225.185 164.489C225.503 164.654 225.821 164.819 226.136 164.992C226.22 165.037 226.305 165.085 226.39 165.133C226.623 165.262 226.857 165.395 227.091 165.528C227.204 165.593 227.312 165.657 227.421 165.726C227.627 165.847 227.832 165.972 228.034 166.097C228.147 166.165 228.259 166.238 228.372 166.306C228.578 166.435 228.779 166.568 228.985 166.697C229.086 166.766 229.19 166.83 229.291 166.899C229.517 167.052 229.743 167.205 229.968 167.362C230.041 167.414 230.113 167.463 230.19 167.515C230.794 167.942 231.387 168.386 231.963 168.845C232.015 168.885 232.068 168.93 232.12 168.974C232.354 169.163 232.588 169.353 232.817 169.542C232.886 169.599 232.954 169.659 233.023 169.716C233.241 169.901 233.458 170.086 233.672 170.276C233.736 170.332 233.801 170.389 233.865 170.449C234.095 170.655 234.321 170.86 234.546 171.07C234.591 171.11 234.631 171.15 234.675 171.186C235.501 171.964 236.295 172.778 237.053 173.625C237.069 173.645 237.085 173.661 237.101 173.681C237.335 173.943 237.569 174.209 237.794 174.479C237.819 174.507 237.843 174.535 237.867 174.564C238.097 174.834 238.322 175.108 238.544 175.386C238.556 175.402 238.568 175.414 238.58 175.43C238.818 175.728 239.052 176.026 239.282 176.333H356.111C362.317 176.333 367.351 181.366 367.351 187.572V214.344C367.351 220.546 362.321 225.583 356.111 225.583H348.974L346.141 236.646H368.362C378.067 236.646 386.852 232.712 393.211 226.353C399.575 219.998 403.504 211.212 403.504 201.508C403.504 182.096 387.767 166.363 368.358 166.363L368.354 166.359Z" fill="#E1E1E1"/>
<path d="M167.322 189.374C167.343 189.305 167.363 189.241 167.383 189.176C167.391 189.152 167.395 189.128 167.403 189.108C167.375 189.197 167.347 189.285 167.318 189.378L167.322 189.374Z" fill="#E1E1E1"/>
<path d="M166.851 191.147C166.851 191.147 166.855 191.131 166.859 191.119C166.879 191.034 166.899 190.95 166.919 190.865C166.895 190.958 166.875 191.05 166.855 191.143L166.851 191.147Z" fill="#E1E1E1"/>
</g>
<g opacity="0.5">
<path d="M348.966 225.579L344.795 241.877L321.058 334.635C318.334 345.278 308.742 352.726 297.761 352.726H115.415C104.421 352.726 94.8341 345.278 92.1138 334.635L68.3771 241.877L64.2061 225.579H173.899C181.366 235.481 193.227 241.881 206.586 241.881C219.945 241.881 231.806 235.481 239.273 225.579H348.966Z" fill="#E1E1E1"/>
</g>
<g opacity="0.5">
<path d="M205.961 241.873H68.3771L64.2061 225.575H173.899C181.249 235.32 192.856 241.675 205.961 241.873Z" fill="#E1E1E1"/>
</g>
<g opacity="0.5">
<path d="M348.966 225.579L344.795 241.877H207.211C220.316 241.679 231.923 235.328 239.274 225.579H348.966Z" fill="#E1E1E1"/>
</g>
<g opacity="0.5">
<path d="M209.436 252.891H203.737C199.362 252.891 195.814 256.438 195.814 260.814V321.356C195.814 325.732 199.362 329.279 203.737 329.279H209.436C213.812 329.279 217.359 325.732 217.359 321.356V260.814C217.359 256.438 213.812 252.891 209.436 252.891Z" fill="#E1E1E1"/>
<path d="M139.133 252.939L133.508 253.853C129.189 254.555 126.256 258.625 126.958 262.944L136.669 322.703C137.371 327.022 141.441 329.954 145.76 329.252L151.385 328.338C155.704 327.636 158.637 323.566 157.935 319.247L148.224 259.488C147.522 255.169 143.452 252.237 139.133 252.939Z" fill="#E1E1E1"/>
<path d="M261.759 328.342L267.384 329.257C271.703 329.958 275.773 327.026 276.475 322.707L286.186 262.948C286.888 258.629 283.955 254.559 279.636 253.857L274.012 252.943C269.693 252.241 265.622 255.173 264.92 259.492L255.21 319.251C254.508 323.57 257.44 327.641 261.759 328.342Z" fill="#E1E1E1"/>
</g>
<path d="M297.76 353.931H115.414C103.864 353.931 93.8013 346.117 90.94 334.929L62.6494 224.366H174.502L174.865 224.846C182.304 234.711 193.645 240.478 205.98 240.664C206.194 240.668 206.395 240.664 206.609 240.664C206.803 240.664 206.992 240.664 207.185 240.664C219.525 240.478 230.866 234.715 238.305 224.846L238.668 224.366H350.52L322.23 334.929C319.368 346.117 309.306 353.927 297.76 353.927V353.931ZM65.7606 226.788L93.2814 334.333C95.8687 344.448 104.968 351.513 115.414 351.513H297.76C308.201 351.513 317.301 344.448 319.888 334.333L347.409 226.788H239.869C231.974 236.96 220.11 242.892 207.226 243.086C206.803 243.094 206.367 243.094 205.936 243.086C193.056 242.892 181.196 236.96 173.297 226.788H65.7606Z" fill="#E1E1E1"/>
<path d="M239.169 338.298H206.587V340.716H239.169V338.298Z" fill="#E1E1E1"/>
<path d="M319.529 338.298H260.715V340.716H319.529V338.298Z" fill="#E1E1E1"/>
<g opacity="0.75">
<path d="M367.338 187.568V214.34C367.338 220.542 362.308 225.579 356.098 225.579H239.269C244.443 218.728 247.506 210.201 247.506 200.956C247.506 191.711 244.439 183.184 239.269 176.333H356.098C362.304 176.333 367.338 181.366 367.338 187.572V187.568Z" fill="#E1E1E1"/>
</g>
<g opacity="0.75">
<path d="M165.662 200.952C165.662 210.197 168.729 218.724 173.899 225.575H57.0697C50.8635 225.575 45.8301 220.542 45.8301 214.336V187.564C45.8301 181.362 50.8595 176.325 57.0697 176.325H173.899C168.725 183.176 165.662 191.703 165.662 200.948V200.952Z" fill="#E1E1E1"/>
</g>
<path d="M356.103 226.788H236.843L238.306 224.85C243.537 217.922 246.301 209.661 246.301 200.956C246.301 192.251 243.537 183.99 238.306 177.062L236.843 175.124H356.103C362.966 175.124 368.551 180.709 368.551 187.572V214.344C368.551 221.207 362.966 226.792 356.103 226.792V226.788ZM241.618 224.37H356.103C361.632 224.37 366.133 219.873 366.133 214.34V187.568C366.133 182.039 361.636 177.538 356.103 177.538H241.618C246.273 184.469 248.719 192.517 248.719 200.952C248.719 209.387 246.273 217.435 241.618 224.366V224.37Z" fill="#E1E1E1"/>
<path d="M176.325 226.788H57.0688C50.2057 226.788 44.6201 221.203 44.6201 214.34V187.568C44.6201 180.705 50.2017 175.12 57.0688 175.12H176.329L174.866 177.058C169.635 183.986 166.87 192.247 166.87 200.952C166.87 209.657 169.635 217.918 174.866 224.846L176.329 226.784L176.325 226.788ZM57.0648 177.542C51.5356 177.542 47.0341 182.039 47.0341 187.572V214.344C47.0341 219.873 51.5316 224.374 57.0648 224.374H171.549C166.894 217.443 164.448 209.395 164.448 200.96C164.448 192.525 166.894 184.477 171.549 177.546H57.0688L57.0648 177.542Z" fill="#E1E1E1"/>
<g opacity="0.5">
<path d="M203.107 160.176C191.179 161.18 180.709 167.297 173.898 176.329C173.197 177.26 172.536 178.215 171.915 179.202L129.6 108.637C127.303 104.796 128.548 99.8231 132.385 97.522L149.823 87.0681C153.659 84.771 158.636 86.0123 160.933 89.8529L203.103 160.18L203.107 160.176Z" fill="#E1E1E1"/>
</g>
<path d="M171.898 181.515L128.571 109.261C125.936 104.861 127.37 99.13 131.771 96.4863L149.209 86.0325C151.341 84.755 153.843 84.3842 156.257 84.9847C158.671 85.5892 160.702 87.0964 161.98 89.2323L205.149 161.22L203.215 161.381C192.003 162.324 181.67 168.039 174.868 177.058C174.191 177.957 173.542 178.896 172.945 179.847L171.898 181.515ZM153.98 87.1206C152.747 87.1206 151.534 87.4551 150.45 88.1039L133.012 98.5578C129.756 100.512 128.692 104.756 130.643 108.016L171.97 176.937C172.285 176.486 172.607 176.039 172.937 175.603C179.764 166.548 189.948 160.636 201.103 159.177L159.904 90.4736C158.957 88.8938 157.454 87.7775 155.669 87.3302C155.109 87.1891 154.544 87.1206 153.984 87.1206H153.98Z" fill="#E1E1E1"/>
<g opacity="0.5">
<path d="M247.511 200.952C247.511 210.197 244.445 218.724 239.274 225.575C231.923 235.32 220.317 241.675 207.211 241.873C207.002 241.877 206.796 241.877 206.587 241.877C206.377 241.877 206.172 241.877 205.962 241.873C192.857 241.675 181.25 235.324 173.899 225.575C168.725 218.724 165.662 210.197 165.662 200.952C165.662 192.961 167.951 185.505 171.921 179.202C172.541 178.215 173.202 177.26 173.903 176.329C180.714 167.298 191.188 161.176 203.113 160.177C204.257 160.08 205.418 160.031 206.591 160.031C219.95 160.031 231.811 166.431 239.278 176.333C244.453 183.184 247.515 191.711 247.515 200.956L247.511 200.952Z" fill="#E1E1E1"/>
</g>
<g opacity="0.5">
<path d="M227.651 200.952C227.651 212.587 218.221 222.017 206.586 222.017C194.952 222.017 186.049 213.106 185.546 201.927C185.53 201.605 185.521 201.278 185.521 200.952C185.521 189.317 194.952 179.887 206.586 179.887C210.121 179.887 213.449 180.754 216.371 182.297C223.077 185.819 227.651 192.856 227.651 200.952Z" fill="#E1E1E1"/>
</g>
<path d="M206.587 223.23C194.304 223.23 184.313 213.239 184.313 200.956C184.313 188.672 194.304 178.682 206.587 178.682C218.871 178.682 228.861 188.672 228.861 200.956C228.861 213.239 218.871 223.23 206.587 223.23ZM206.587 181.1C195.638 181.1 186.731 190.006 186.731 200.956C186.731 211.905 195.638 220.812 206.587 220.812C217.537 220.812 226.443 211.905 226.443 200.956C226.443 190.006 217.537 181.1 206.587 181.1Z" fill="#E1E1E1"/>
<path d="M206.588 243.086C183.355 243.086 164.454 224.185 164.454 200.952C164.454 177.719 183.355 158.818 206.588 158.818C229.821 158.818 248.721 177.719 248.721 200.952C248.721 224.185 229.821 243.086 206.588 243.086ZM206.588 161.24C184.689 161.24 166.872 179.057 166.872 200.956C166.872 222.855 184.689 240.672 206.588 240.672C228.487 240.672 246.303 222.855 246.303 200.956C246.303 179.057 228.487 161.24 206.588 161.24Z" fill="#E1E1E1"/>
<path d="M150.187 212.164H80.0928V214.582H150.187V212.164Z" fill="#E1E1E1"/>
<path d="M284.498 212.164H260.713V214.582H284.498V212.164Z" fill="#E1E1E1"/>
<g opacity="0.5">
<path d="M308.982 55.0823H215.119C210.021 55.0823 205.887 59.2171 205.887 64.315V118.039C205.887 123.137 210.021 127.272 215.119 127.272H230.071V135.972C230.071 139.978 234.798 142.102 237.796 139.446L251.514 127.272H308.978C314.076 127.272 318.211 123.137 318.211 118.039V64.315C318.211 59.2171 314.076 55.0823 308.978 55.0823H308.982Z" fill="#E1E1E1"/>
</g>
<path d="M234.736 141.84C233.921 141.84 233.099 141.667 232.314 141.316C230.186 140.357 228.86 138.314 228.86 135.981V128.489H215.118C209.359 128.489 204.676 123.806 204.676 118.047V64.3231C204.676 58.5642 209.359 53.8813 215.118 53.8813H308.98C314.739 53.8813 319.422 58.5642 319.422 64.3231V118.047C319.422 123.806 314.739 128.489 308.98 128.489H251.976L238.6 140.357C237.496 141.336 236.13 141.844 234.74 141.844L234.736 141.84ZM215.118 56.2913C210.693 56.2913 207.094 59.8901 207.094 64.315V118.039C207.094 122.464 210.693 126.063 215.118 126.063H231.278V135.972C231.278 137.363 232.035 138.536 233.305 139.104C234.574 139.672 235.953 139.462 236.992 138.54L251.057 126.063H308.98C313.405 126.063 317.004 122.464 317.004 118.039V64.315C317.004 59.8901 313.405 56.2913 308.98 56.2913H215.118Z" fill="#E1E1E1"/>
<path d="M277.841 94.1572C277.841 100.275 276.467 104.998 273.718 108.315C270.97 111.635 267.097 113.292 262.096 113.292C257.094 113.292 253.153 111.623 250.397 108.282C247.636 104.941 246.258 100.234 246.258 94.1572V85.8796C246.258 79.762 247.632 75.0429 250.38 71.7222C253.129 68.4055 257.014 66.7451 262.031 66.7451C267.049 66.7451 270.942 68.4135 273.698 71.7544C276.459 75.0953 277.837 79.8144 277.837 85.9118V94.1572H277.841ZM267.355 84.5416C267.355 81.2854 266.928 78.8512 266.077 77.2433C265.227 75.6353 263.877 74.8333 262.031 74.8333C260.185 74.8333 258.916 75.5789 258.094 77.074C257.276 78.5691 256.833 80.83 256.772 83.8565V95.4307C256.772 98.8118 257.195 101.286 258.046 102.85C258.896 104.418 260.246 105.199 262.092 105.199C263.937 105.199 265.191 104.438 266.045 102.91C266.895 101.387 267.331 98.9932 267.351 95.7369V84.5335L267.355 84.5416Z" fill="#E1E1E1"/>
<path d="M151.637 166.612C151.613 166.612 151.589 166.612 151.565 166.612C150.763 166.564 149.957 166.516 149.147 166.463C148.482 166.423 147.974 165.847 148.018 165.182C148.063 164.517 148.639 164.013 149.3 164.053C150.106 164.106 150.908 164.154 151.71 164.202C152.375 164.243 152.883 164.815 152.842 165.484C152.802 166.125 152.27 166.62 151.637 166.62V166.612Z" fill="#E1E1E1"/>
<path d="M144.327 166.117C144.294 166.117 144.262 166.117 144.23 166.117C142.449 165.976 140.837 165.823 139.305 165.657C138.64 165.585 138.161 164.988 138.237 164.323C138.31 163.658 138.906 163.179 139.571 163.255C141.078 163.421 142.666 163.57 144.423 163.711C145.088 163.763 145.584 164.348 145.531 165.012C145.483 165.645 144.951 166.125 144.327 166.125V166.117ZM134.57 165.025C134.509 165.025 134.445 165.021 134.385 165.008C132.68 164.746 131.032 164.448 129.484 164.118C128.831 163.977 128.416 163.336 128.553 162.683C128.69 162.03 129.335 161.615 129.988 161.752C131.487 162.075 133.091 162.365 134.747 162.619C135.408 162.719 135.859 163.336 135.759 163.997C135.666 164.593 135.15 165.021 134.566 165.021L134.57 165.025ZM124.978 162.949C124.866 162.949 124.753 162.933 124.64 162.901C122.992 162.417 121.396 161.873 119.893 161.281C119.272 161.035 118.966 160.334 119.212 159.713C119.457 159.092 120.159 158.786 120.779 159.032C122.214 159.596 123.741 160.12 125.321 160.579C125.962 160.769 126.329 161.438 126.143 162.079C125.99 162.607 125.506 162.949 124.983 162.949H124.978ZM115.871 159.33C115.681 159.33 115.492 159.286 115.311 159.193C113.989 158.5 112.703 157.742 111.49 156.936C111.317 156.824 111.148 156.707 110.978 156.59C110.43 156.211 110.289 155.457 110.668 154.909C111.047 154.361 111.8 154.22 112.348 154.599C112.506 154.708 112.667 154.817 112.828 154.921C113.969 155.679 115.182 156.396 116.431 157.049C117.023 157.36 117.253 158.089 116.943 158.681C116.725 159.092 116.306 159.33 115.871 159.33ZM107.823 153.753C107.533 153.753 107.242 153.648 107.013 153.442C105.784 152.33 104.595 151.117 103.474 149.84C103.035 149.336 103.088 148.574 103.591 148.135C104.095 147.696 104.857 147.748 105.296 148.252C106.352 149.461 107.472 150.605 108.633 151.653C109.129 152.1 109.165 152.866 108.717 153.362C108.48 153.628 108.149 153.761 107.819 153.761L107.823 153.753ZM101.375 146.378C100.992 146.378 100.613 146.196 100.379 145.854C99.4202 144.468 98.5377 143.017 97.7518 141.546C97.4375 140.957 97.6591 140.224 98.2475 139.91C98.8359 139.595 99.5693 139.817 99.8837 140.405C100.625 141.796 101.459 143.166 102.366 144.476C102.745 145.024 102.608 145.777 102.06 146.156C101.85 146.301 101.613 146.37 101.375 146.37V146.378ZM96.7685 137.729C96.2849 137.729 95.8255 137.435 95.6401 136.956C95.0195 135.356 94.5117 133.728 94.1208 132.12C93.9636 131.471 94.3626 130.818 95.0114 130.661C95.6643 130.504 96.3131 130.903 96.4703 131.551C96.833 133.055 97.3125 134.578 97.8929 136.077C98.1347 136.702 97.8244 137.399 97.2037 137.641C97.0587 137.697 96.9136 137.721 96.7685 137.721V137.729ZM94.2094 130.242C93.9958 130.242 93.7823 130.242 93.5687 130.23C92.8997 130.209 92.3758 129.649 92.4 128.98C92.4201 128.327 92.9561 127.812 93.609 127.812C93.4357 127.622 93.3228 127.376 93.2987 127.102C93.2221 126.212 93.1818 125.317 93.1818 124.442C93.1818 123.62 93.2181 122.798 93.2825 121.996C93.339 121.331 93.9233 120.836 94.5883 120.892C95.2532 120.948 95.7489 121.533 95.6925 122.198C95.632 122.931 95.5998 123.689 95.5998 124.442C95.5998 125.248 95.6361 126.075 95.7086 126.897C95.7368 127.231 95.628 127.55 95.4225 127.783C96.3332 127.723 97.2843 127.602 98.2596 127.417C98.9165 127.292 99.5492 127.723 99.6741 128.376C99.799 129.029 99.3678 129.665 98.715 129.79C97.1473 130.088 95.632 130.242 94.2094 130.242ZM88.7971 129.347C88.6601 129.347 88.5231 129.323 88.3861 129.274C86.8265 128.714 85.2709 127.912 83.7677 126.897C83.2156 126.522 83.0705 125.772 83.4413 125.216C83.8161 124.664 84.5656 124.519 85.1218 124.89C86.4557 125.793 87.83 126.502 89.2002 126.993C89.8288 127.219 90.1553 127.912 89.9296 128.541C89.7523 129.033 89.2888 129.343 88.7931 129.343L88.7971 129.347ZM103.216 128.521C102.717 128.521 102.249 128.206 102.076 127.711C101.858 127.082 102.189 126.393 102.822 126.171C104.474 125.595 105.868 124.97 107.081 124.261C107.658 123.923 108.399 124.12 108.734 124.696C109.072 125.273 108.875 126.014 108.298 126.349C106.948 127.139 105.417 127.828 103.615 128.456C103.482 128.501 103.349 128.525 103.216 128.525V128.521ZM80.6686 123.987C80.3624 123.987 80.0561 123.87 79.8223 123.64C78.6818 122.524 77.5494 121.255 76.4573 119.86C76.0462 119.336 76.1349 118.575 76.6588 118.164C77.1827 117.749 77.9444 117.841 78.3554 118.365C79.3871 119.675 80.451 120.872 81.5149 121.916C81.9905 122.383 81.9985 123.149 81.5311 123.624C81.2933 123.866 80.983 123.987 80.6686 123.987ZM111.478 123.431C111.2 123.431 110.918 123.334 110.688 123.137C110.184 122.701 110.128 121.936 110.563 121.432L110.648 121.331C111.555 120.251 112.211 118.966 112.546 117.612C112.707 116.963 113.364 116.568 114.013 116.729C114.662 116.89 115.057 117.547 114.895 118.196C114.468 119.905 113.642 121.525 112.502 122.883L112.393 123.012C112.155 123.29 111.817 123.431 111.478 123.431ZM95.3701 118.49C95.2532 118.49 95.1323 118.474 95.0114 118.434C94.3747 118.236 94.016 117.559 94.2135 116.922C94.7535 115.186 95.5353 113.594 96.5388 112.187C96.9257 111.643 97.6833 111.518 98.2273 111.905C98.7714 112.292 98.8963 113.05 98.5094 113.594C97.6551 114.787 96.9901 116.149 96.5267 117.64C96.3655 118.16 95.8899 118.49 95.3741 118.49H95.3701ZM74.5672 116.322C74.1682 116.322 73.7814 116.125 73.5476 115.766C72.6852 114.428 71.8308 112.981 71.0047 111.466C70.6863 110.882 70.8999 110.144 71.4883 109.826C72.0726 109.507 72.8101 109.721 73.1285 110.309C73.9264 111.772 74.7526 113.167 75.5828 114.456C75.9455 115.016 75.7802 115.766 75.2201 116.129C75.0186 116.258 74.7929 116.322 74.5672 116.322ZM113.557 114.283C113.062 114.283 112.598 113.977 112.421 113.485C112.328 113.227 112.211 112.973 112.082 112.731C111.583 111.8 110.825 111.035 109.834 110.458C109.257 110.124 109.06 109.382 109.394 108.806C109.729 108.23 110.47 108.032 111.047 108.367C112.413 109.161 113.505 110.273 114.21 111.583C114.396 111.929 114.557 112.288 114.69 112.659C114.92 113.287 114.593 113.981 113.969 114.206C113.832 114.255 113.694 114.279 113.557 114.279V114.283ZM101.077 110.765C100.666 110.765 100.263 110.555 100.037 110.176C99.6943 109.604 99.8797 108.862 100.452 108.52C100.883 108.262 101.326 108.032 101.782 107.839C102.987 107.319 104.349 107.033 105.719 107.013C106.388 107.013 106.936 107.537 106.944 108.206C106.952 108.875 106.42 109.423 105.751 109.431C104.696 109.443 103.656 109.66 102.741 110.055C102.386 110.208 102.032 110.39 101.693 110.595C101.5 110.712 101.286 110.769 101.073 110.769L101.077 110.765ZM69.8441 107.718C69.3927 107.718 68.9575 107.464 68.7519 107.025C68.0668 105.574 67.3898 104.047 66.7369 102.483C66.479 101.866 66.7732 101.157 67.3898 100.903C68.0064 100.645 68.7157 100.94 68.9695 101.556C69.6063 103.083 70.2672 104.579 70.9362 105.993C71.2223 106.598 70.9644 107.319 70.3599 107.601C70.1947 107.682 70.0174 107.718 69.8441 107.718ZM66.0639 98.6545C65.5723 98.6545 65.1088 98.3522 64.9275 97.8646C64.3673 96.3413 63.8192 94.7655 63.3034 93.1818C63.0978 92.549 63.4444 91.8639 64.0771 91.6584C64.7098 91.4489 65.3949 91.7995 65.6005 92.4322C66.1082 93.9878 66.6442 95.5353 67.1963 97.0304C67.4261 97.6551 67.1077 98.3522 66.479 98.582C66.342 98.6343 66.2009 98.6585 66.0599 98.6585L66.0639 98.6545Z" fill="#E1E1E1"/>
<path d="M63.0056 89.2928C62.4817 89.2928 61.9981 88.9462 61.8449 88.4183C61.6112 87.6042 61.3936 86.8184 61.1921 86.0688C61.0188 85.424 61.4016 84.759 62.0464 84.5898C62.6912 84.4165 63.3522 84.7993 63.5254 85.4441C63.7229 86.1776 63.9365 86.9514 64.1662 87.7493C64.3516 88.3901 63.9808 89.0591 63.3401 89.2444C63.2272 89.2767 63.1144 89.2928 63.0056 89.2928Z" fill="#E1E1E1"/>
<path d="M68.4691 60.6136C76.7414 58.0735 82.4671 52.8216 81.2578 48.8833C80.0485 44.945 72.3621 43.8116 64.0897 46.3518C55.8174 48.892 50.0917 54.1438 51.301 58.0821C52.5103 62.0204 60.1967 63.1538 68.4691 60.6136Z" fill="#E1E1E1"/>
<g opacity="0.5">
<path d="M62.8364 78.3049C67.9412 76.1935 69.3983 67.9995 66.0909 60.0029C62.7835 52.0063 55.9641 47.2354 50.8593 49.3467C45.7545 51.4581 44.2974 59.6522 47.6048 67.6488C50.9121 75.6453 57.7316 80.4162 62.8364 78.3049Z" fill="#E1E1E1"/>
</g>
<path d="M60.2579 80.0238C58.1864 80.0238 55.9901 79.2581 53.8502 77.763C50.7874 75.619 48.1719 72.1935 46.4833 68.1152C44.7947 64.0368 44.2265 59.765 44.8834 56.0816C45.5725 52.2047 47.5311 49.416 50.3924 48.2311C56.107 45.8696 63.6471 50.9433 67.2056 59.5433C68.8941 63.6217 69.4624 67.8935 68.8055 71.5769C68.1164 75.4538 66.1578 78.2425 63.2965 79.4274C62.3293 79.8263 61.3097 80.0238 60.2579 80.0238ZM53.4673 50.0487C52.7258 50.0487 52.0044 50.1857 51.3193 50.4678C49.2439 51.3262 47.8052 53.4701 47.2651 56.5047C46.6888 59.7368 47.2047 63.5331 48.72 67.1883C50.2352 70.8435 52.5485 73.8982 55.2365 75.7802C57.7633 77.5494 60.2982 78.0491 62.3736 77.1907C64.4491 76.3323 65.8878 74.1884 66.4278 71.1538C67.0041 67.9217 66.4882 64.1255 64.973 60.4703C62.3897 54.2237 57.5981 50.0487 53.4673 50.0487Z" fill="#E1E1E1"/>
<path d="M80.2858 65.7593C81.4882 61.8189 75.7533 56.577 67.4766 54.0513C59.1998 51.5256 51.5154 52.6724 50.313 56.6128C49.1105 60.5532 54.8454 65.7951 63.1221 68.3208C71.3989 70.8465 79.0833 69.6997 80.2858 65.7593Z" fill="#E1E1E1"/>
<path d="M71.538 70.8717C68.8057 70.8717 65.7872 70.3962 62.7687 69.4773C58.5977 68.2038 54.8941 66.2211 52.3471 63.8877C49.5624 61.3448 48.43 58.6366 49.1554 56.2589C49.8808 53.8812 52.3351 52.2692 56.0628 51.7131C59.4802 51.2053 63.6594 51.6244 67.8304 52.8979C76.8818 55.6584 82.8623 61.4657 81.4437 66.1163C80.7183 68.494 78.2641 70.106 74.5363 70.6662C73.5893 70.8072 72.5858 70.8757 71.538 70.8757V70.8717ZM59.0772 53.9175C58.1463 53.9175 57.2597 53.9779 56.4215 54.1029C53.7053 54.5059 51.8998 55.5496 51.4686 56.9642C51.0374 58.3787 51.9522 60.2526 53.9793 62.1024C56.2683 64.194 59.6414 65.9914 63.478 67.1641C67.3146 68.3328 71.1149 68.7277 74.1817 68.2683C76.8979 67.8653 78.7033 66.8215 79.1346 65.407C79.997 62.578 75.2778 57.6936 67.1292 55.2071C64.3404 54.3568 61.5638 53.9175 59.0813 53.9175H59.0772Z" fill="#E1E1E1"/>
<path d="M60.3262 80.0035C55.188 80.0035 49.4533 75.2844 46.4872 68.111C44.7986 64.0327 44.2304 59.7609 44.8873 56.0774C45.5764 52.2006 47.535 49.4118 50.3963 48.227C52.3347 47.425 54.5271 47.4411 56.7718 48.2673C58.8271 47.0301 61.2209 45.9742 63.7316 45.2045C72.7789 42.4278 80.984 43.8907 82.4106 48.5373C83.3053 51.455 81.4193 54.804 77.3288 57.7015C80.714 60.4177 82.2414 63.4846 81.4394 66.1121C80.3594 69.6464 75.5113 71.4076 68.9303 70.7345C68.3983 74.962 66.343 78.1618 63.2964 79.4232C62.3493 79.8141 61.3499 80.0035 60.3262 80.0035ZM53.4188 50.0566C52.6813 50.0566 51.9761 50.1896 51.3232 50.4596C49.2478 51.318 47.8091 53.462 47.269 56.5006C46.6928 59.7326 47.2086 63.5289 48.7239 67.1841C51.7706 74.551 57.8961 79.0404 62.3775 77.1866C64.8439 76.167 66.4357 73.2251 66.6372 69.316L66.7057 67.9901L68.0195 68.1795C73.7179 69.0057 78.3927 67.8329 79.1383 65.4029C79.7105 63.5289 77.9494 60.9376 74.5481 58.6445L72.9804 57.5887L74.5965 56.6094C78.5781 54.1954 80.7422 51.3059 80.1095 49.2466C79.2431 46.4216 72.5976 45.0151 64.453 47.5137C61.9262 48.2915 59.5404 49.3675 57.5496 50.6329L57.0096 50.9755L56.4212 50.7216C55.3855 50.2783 54.378 50.0526 53.4269 50.0526L53.4188 50.0566Z" fill="#E1E1E1"/>
</g>
<defs>
<clipPath id="clip0_4544_5533">
<rect width="403" height="403" fill="white" transform="translate(0.5)"/>
</clipPath>
</defs>
</svg>
