<svg width="40" height="40" viewBox="0 0 40 40" fill="none" xmlns="http://www.w3.org/2000/svg">
<path d="M24.6584 12.709C25.9871 12.709 26.9655 13.0337 27.6491 13.7002C28.3198 14.3581 28.6488 15.298 28.6488 16.5798C28.6488 17.8572 27.9011 19.25 26.4314 20.724L19.6768 27.2266L12.9007 20.6898L12.8494 20.6385L12.7896 20.5873C12.7896 20.5873 12.7384 20.5446 12.6145 20.4164C12.5675 20.3694 12.4222 20.2113 12.0633 19.7584C11.8112 19.4423 11.5805 19.1133 11.384 18.7844C11.2131 18.4981 11.0508 18.1264 10.9012 17.6863C10.773 17.2975 10.709 16.9258 10.709 16.5798C10.709 15.298 11.0337 14.3581 11.7087 13.7002C12.3923 13.0337 13.3707 12.709 14.6994 12.709C15.007 12.709 15.3317 12.7645 15.6649 12.8756C16.0366 12.9995 16.3827 13.1661 16.6989 13.3755C17.0919 13.6361 17.4337 13.8796 17.7072 14.0975C17.9763 14.3111 18.2327 14.5418 18.4719 14.7811L19.681 15.9902L20.8901 14.7811C21.1294 14.5418 21.39 14.3111 21.6549 14.0975C21.9326 13.8753 22.2744 13.6318 22.6674 13.3755C22.9836 13.1704 23.3297 12.9995 23.6971 12.8799C24.0261 12.7645 24.3551 12.709 24.6584 12.709ZM24.6584 11C24.1671 11 23.6629 11.0854 23.1502 11.2563C22.6375 11.4272 22.159 11.6579 21.719 11.9485C21.2789 12.239 20.8986 12.5124 20.5825 12.7645C20.2663 13.0209 19.963 13.29 19.6768 13.5763C19.3905 13.29 19.0872 13.0209 18.771 12.7645C18.4549 12.5082 18.0746 12.239 17.6345 11.9485C17.1945 11.6579 16.716 11.4272 16.2033 11.2563C15.6906 11.0854 15.1864 11 14.6951 11C12.9135 11 11.5207 11.4913 10.5124 12.4783C9.50414 13.4652 9 14.8324 9 16.5798C9 17.1138 9.09399 17.6607 9.28198 18.2247C9.46997 18.7886 9.67931 19.2714 9.91857 19.6687C10.1578 20.066 10.427 20.4548 10.7303 20.8308C11.0337 21.2068 11.2516 21.4674 11.3926 21.6127C11.5335 21.7537 11.6403 21.8605 11.7215 21.9246L19.1598 29.1022C19.3008 29.2432 19.476 29.3158 19.6853 29.3158C19.8904 29.3158 20.0656 29.2432 20.2108 29.1022L27.6363 21.9502C29.4563 20.1301 30.3663 18.3443 30.3663 16.584C30.3663 14.8366 29.8622 13.4695 28.8539 12.4825C27.8328 11.4913 26.44 11 24.6584 11Z" fill="white"/>
</svg>
