<svg width="40" height="40" viewBox="0 0 40 40" fill="none" xmlns="http://www.w3.org/2000/svg">
<path d="M21.4999 19.3H30.2999L27.8999 28.7C27.4999 30.1 26.1999 31.1 24.7999 31.1H14.2999C12.7999 31.1 11.5 30.1 11.2 28.7L8.79993 19.3H17.4999M23.4999 27.8L24.2999 22.6M14.7 22.6L15.4999 27.8M19.4999 22.6V27.8M30.3999 19.3C31.4999 19.3 32.2999 18.4 32.2999 17.4C32.2999 16.3 31.3999 15.5 30.3999 15.5H8.59995C7.49995 15.5 6.69995 16.4 6.69995 17.4C6.69995 18.5 7.59995 19.3 8.59995 19.3M11.4999 15.5L15.0999 9.30005M27.5999 15.5L23.9999 9.30005" stroke="white" strokeWidth="1.5" stroke-miterlimit="10" stroke-linecap="round" stroke-linejoin="round"/>
<circle cx="29.5" cy="14.5" r="3.5" fill="#FF000D"/>
</svg>
