<svg width="40" height="40" viewBox="0 0 40 40" fill="none" xmlns="http://www.w3.org/2000/svg">
<path d="M23.3345 20.4506C24.582 19.485 25.3937 17.9769 25.3937 16.2764C25.3937 13.3626 23.0311 11 20.1173 11C17.2035 11 14.8409 13.3626 14.8409 16.2764C14.8409 17.9769 15.6484 19.485 16.9002 20.4506C13.4609 21.7537 11 25.0776 11 28.9698C11 29.4397 11.3845 29.8242 11.8545 29.8242C12.3244 29.8242 12.709 29.4397 12.709 28.9698C12.709 24.8853 16.0329 21.5614 20.1173 21.5614C24.2018 21.5614 27.5257 24.8853 27.5257 28.9698C27.5257 29.4397 27.9102 29.8242 28.3802 29.8242C28.8501 29.8242 29.2347 29.4397 29.2347 28.9698C29.2304 25.0776 26.7737 21.7537 23.3345 20.4506ZM20.1131 12.709C22.0784 12.709 23.6805 14.3111 23.6805 16.2764C23.6805 18.2417 22.0784 19.8439 20.1131 19.8439C18.1478 19.8439 16.5456 18.2417 16.5456 16.2764C16.5499 14.3111 18.1478 12.709 20.1131 12.709Z" fill="white"/>
</svg>
