<svg xmlns="http://www.w3.org/2000/svg" width="91" height="38" fill="none" viewBox="0 0 91 38">
  <path fill="#DEF81C" d="M18.755 31.641a3.966 3.966 0 0 0 0 5.756c.07.07.163.103.26.103a.368.368 0 0 0 .26-.103 3.923 3.923 0 0 0 1.239-2.878 3.947 3.947 0 0 0-1.24-2.878.376.376 0 0 0-.513 0h-.006Zm5.162-3.391a.378.378 0 0 0-.444.26 3.957 3.957 0 0 0 .39 3.088 3.91 3.91 0 0 0 2.515 1.84c.027.005.054.01.081.01a.37.37 0 0 0 .357-.27 3.912 3.912 0 0 0-.39-3.09 3.942 3.942 0 0 0-2.515-1.838h.006Zm-9.807 0a3.942 3.942 0 0 0-2.516 1.839 3.89 3.89 0 0 0-.39 3.089c.05.162.195.27.358.27.027 0 .054 0 .08-.01a3.937 3.937 0 0 0 2.905-4.928.375.375 0 0 0-.443-.26h.006Zm6.259.535a.215.215 0 0 0-.276.108 2.294 2.294 0 0 0 1.233 3.095.215.215 0 0 0 .276-.108 2.294 2.294 0 0 0-1.233-3.095Zm-2.436.113a.215.215 0 0 0-.276-.108 2.297 2.297 0 0 0-1.233 3.095.211.211 0 0 0 .195.124c.027 0 .054 0 .08-.016a2.25 2.25 0 0 0 1.283-1.282 2.294 2.294 0 0 0-.049-1.813Zm9.392-1.833a.22.22 0 0 0-.195.227 2.28 2.28 0 0 0 .806 1.623c.422.357.936.546 1.482.546.087 0 .168 0 .255-.016a.22.22 0 0 0 .194-.227 2.25 2.25 0 0 0-.806-1.623 2.314 2.314 0 0 0-1.73-.536l-.006.006Zm-16.619 0a2.27 2.27 0 0 0-1.73.535 2.28 2.28 0 0 0-.807 1.623.22.22 0 0 0 .195.227c.086.011.168.017.254.017.541 0 1.06-.19 1.482-.547.476-.406.769-1 .806-1.623a.22.22 0 0 0-.194-.227l-.006-.005Zm18.306-4.031a3.464 3.464 0 0 0-2.705.39.33.33 0 0 0-.119.433 3.45 3.45 0 0 0 4.842 1.298.33.33 0 0 0 .119-.433 3.418 3.418 0 0 0-2.142-1.693l.005.005ZM9.694 25.556a3.468 3.468 0 0 0 2.142-1.694.325.325 0 0 0-.119-.432 3.464 3.464 0 0 0-2.705-.39 3.432 3.432 0 0 0-2.142 1.693.325.325 0 0 0 .119.433 3.403 3.403 0 0 0 2.7.395l.005-.005Zm14.823.941c.114-.01.2-.108.195-.227a2.28 2.28 0 0 0-.785-1.634 2.313 2.313 0 0 0-1.725-.552.216.216 0 0 0-.195.228 2.31 2.31 0 0 0 .784 1.633c.422.368.947.563 1.499.563.076 0 .151 0 .227-.01Zm-8.687-2.413a2.306 2.306 0 0 0-1.726.552 2.26 2.26 0 0 0-.785 1.634c0 .114.081.216.195.227a2.263 2.263 0 0 0 1.726-.552 2.31 2.31 0 0 0 .784-1.633.228.228 0 0 0-.195-.228ZM32.36 8.948a3.985 3.985 0 0 0 3.111-.368 3.92 3.92 0 0 0 1.872-2.51.366.366 0 0 0-.26-.444 3.915 3.915 0 0 0-3.11.368 3.952 3.952 0 0 0-1.872 2.51.366.366 0 0 0 .26.444Zm-5.155-2.51c.027 0 .06 0 .092-.011a3.97 3.97 0 0 0 2.483-1.883c.536-.952.655-2.05.336-3.1a.372.372 0 0 0-.444-.254 3.92 3.92 0 0 0-2.483 1.883 3.951 3.951 0 0 0-.335 3.1.377.377 0 0 0 .357.265h-.006ZM37.48 14.2a3.918 3.918 0 0 0-2.852-1.26h-.032a3.962 3.962 0 0 0-2.84 1.206.37.37 0 0 0 0 .514 3.969 3.969 0 0 0 2.85 1.26h.039a3.907 3.907 0 0 0 2.834-1.206.37.37 0 0 0 0-.514Zm-7.927-6.972a2.292 2.292 0 0 0-.465 1.753.216.216 0 0 0 .216.184h.022a2.308 2.308 0 0 0 1.596-.866c.395-.498.557-1.12.465-1.753a.215.215 0 0 0-.232-.184 2.298 2.298 0 0 0-1.596.866h-.006Zm.845 3.802a.22.22 0 0 0 .043.298 2.293 2.293 0 0 0 3.3-.47.22.22 0 0 0-.043-.298 2.267 2.267 0 0 0-1.753-.47 2.307 2.307 0 0 0-1.547.946v-.006ZM24.295 3.9c.038 0 .081-.01.12-.032.524-.34.892-.893 1.005-1.51A2.268 2.268 0 0 0 25.015.59a.215.215 0 0 0-.293-.054 2.258 2.258 0 0 0-1.006 1.509c-.113.617.033 1.26.406 1.769a.21.21 0 0 0 .173.086Zm10.04 13.909a2.285 2.285 0 0 0-1.806.119.214.214 0 0 0-.098.281 2.305 2.305 0 0 0 2.1 1.369 2.34 2.34 0 0 0 1.038-.25c.102-.053.146-.172.102-.28a2.271 2.271 0 0 0-1.325-1.234l-.01-.005ZM22.305 3.695a3.452 3.452 0 0 0-1.688-2.148.328.328 0 0 0-.433.114 3.408 3.408 0 0 0-.395 2.699c.243.914.86 1.693 1.688 2.148a.32.32 0 0 0 .157.037.317.317 0 0 0 .276-.156 3.462 3.462 0 0 0 .395-2.7v.006Zm6.778 15.136a.327.327 0 0 0-.319.32 3.485 3.485 0 0 0 1.012 2.537 3.408 3.408 0 0 0 2.434 1.006h.103a.327.327 0 0 0 .319-.32 3.425 3.425 0 0 0-1.012-2.537 3.458 3.458 0 0 0-2.537-1.006Zm-4.809-8.996c.038 0 .081-.01.113-.032a2.295 2.295 0 0 0 .639-3.268.22.22 0 0 0-.292-.059 2.28 2.28 0 0 0-1.023 1.498c-.119.617.022 1.26.384 1.77a.22.22 0 0 0 .179.091Zm4.912 5.009a2.286 2.286 0 0 0-1.807.136.215.215 0 0 0-.097.28c.26.574.746 1.018 1.341 1.218.244.086.498.124.747.124.362 0 .725-.086 1.06-.265a.215.215 0 0 0 .098-.281 2.274 2.274 0 0 0-1.342-1.217v.005ZM2.538 8.59a3.986 3.986 0 0 0 3.11.368.378.378 0 0 0 .26-.443 3.97 3.97 0 0 0-1.871-2.51 3.915 3.915 0 0 0-3.11-.368.378.378 0 0 0-.26.444 3.907 3.907 0 0 0 1.871 2.51Zm.871 7.342a3.984 3.984 0 0 0 2.85-1.255.382.382 0 0 0 0-.514 3.962 3.962 0 0 0-2.84-1.207h-.032a3.897 3.897 0 0 0-2.851 1.26.376.376 0 0 0 0 .515 3.907 3.907 0 0 0 2.835 1.206h.038v-.005Zm7.308-9.5a.37.37 0 0 0 .449-.254 3.956 3.956 0 0 0-.335-3.1 3.875 3.875 0 0 0-2.483-1.882.367.367 0 0 0-.444.254 3.93 3.93 0 0 0 .335 3.1 3.92 3.92 0 0 0 2.483 1.882h-.005ZM4.318 10.56a.22.22 0 0 0-.043.297 2.275 2.275 0 0 0 1.871.968c.514 0 1.023-.173 1.429-.498a.22.22 0 0 0 .043-.297 2.287 2.287 0 0 0-1.547-.947 2.28 2.28 0 0 0-1.753.47v.006Zm4.376-1.39h.022c.108 0 .2-.076.216-.184a2.314 2.314 0 0 0-.465-1.753 2.285 2.285 0 0 0-1.59-.866.211.211 0 0 0-.233.184 2.3 2.3 0 0 0 .465 1.753c.39.492.968.806 1.596.866h-.01Zm-3.208 8.763a2.308 2.308 0 0 0-1.807-.119c-.6.211-1.071.65-1.33 1.234-.05.103 0 .227.102.281a2.276 2.276 0 0 0 1.812.114 2.285 2.285 0 0 0 1.325-1.234c.05-.102 0-.227-.097-.281l-.005.005ZM13.6 3.879a.231.231 0 0 0 .12.032.218.218 0 0 0 .173-.086 2.32 2.32 0 0 0 .405-1.77A2.258 2.258 0 0 0 13.292.548.214.214 0 0 0 13 .6a2.29 2.29 0 0 0 .6 3.278ZM9.24 19.156a.327.327 0 0 0-.319-.32 3.442 3.442 0 0 0-2.537 1.007 3.417 3.417 0 0 0-1.011 2.537c0 .173.146.314.319.32h.102a3.446 3.446 0 0 0 3.446-3.543Zm7.298-12.637a3.47 3.47 0 0 0 1.688-2.148 3.408 3.408 0 0 0-.395-2.7.323.323 0 0 0-.433-.113 3.403 3.403 0 0 0-1.688 2.148 3.472 3.472 0 0 0 .395 2.7.33.33 0 0 0 .433.118V6.52ZM10.63 14.99a2.286 2.286 0 0 0-1.806-.135c-.6.205-1.077.638-1.342 1.217-.049.103 0 .227.097.281.336.173.698.265 1.06.265.25 0 .504-.043.747-.124a2.308 2.308 0 0 0 1.342-1.217c.049-.103 0-.227-.098-.281v-.006Zm2.645-8.509a.215.215 0 0 0-.292.06 2.295 2.295 0 0 0 .638 3.267.218.218 0 0 0 .292-.06 2.31 2.31 0 0 0 .385-1.768 2.276 2.276 0 0 0-1.023-1.499Z"/>
  <path fill="#fff" d="M66.036 11.936 62.526 24.5h-2.97l-2.358-8.946-2.466 8.946-2.952.018-3.384-12.582h2.7l2.214 9.756 2.556-9.756h2.808l2.412 9.702 2.232-9.702h2.718Zm6.037 0c1.32 0 2.479.258 3.475.774a5.446 5.446 0 0 1 2.322 2.214c.551.948.828 2.052.828 3.312 0 1.26-.276 2.364-.828 3.312-.54.936-1.315 1.662-2.323 2.178-.995.516-2.153.774-3.474.774h-4.391V11.936h4.391Zm-.09 10.422c1.32 0 2.34-.36 3.06-1.08.72-.72 1.08-1.734 1.08-3.042 0-1.308-.36-2.328-1.08-3.06-.72-.744-1.74-1.116-3.06-1.116h-1.782v8.298h1.783Zm15.729-4.302c.708.132 1.29.486 1.746 1.062.456.576.684 1.236.684 1.98 0 .672-.168 1.266-.504 1.782-.324.504-.798.9-1.422 1.188-.624.288-1.362.432-2.214.432h-5.418V11.936h5.184c.852 0 1.584.138 2.196.414.624.276 1.092.66 1.404 1.152.324.492.486 1.05.486 1.674 0 .732-.198 1.344-.594 1.836-.384.492-.9.84-1.548 1.044Zm-4.608-.936h2.304c.6 0 1.062-.132 1.386-.396.324-.276.486-.666.486-1.17 0-.504-.162-.894-.486-1.17-.324-.276-.786-.414-1.386-.414h-2.304v3.15Zm2.538 5.328c.612 0 1.086-.144 1.422-.432.348-.288.522-.696.522-1.224 0-.54-.18-.96-.54-1.26-.36-.312-.846-.468-1.458-.468h-2.484v3.384h2.538Z"/>
</svg>
