<svg width="23" height="22" viewBox="0 0 23 22" fill="none" xmlns="http://www.w3.org/2000/svg">
<path d="M11.3476 0C5.44747 0 0.666626 4.78084 0.666626 10.681C0.666626 16.5812 5.44747 21.3621 11.3476 21.3621C17.2478 21.3621 22.0287 16.5812 22.0287 10.681C22.0287 4.78084 17.2478 0 11.3476 0ZM11.3476 19.6531C6.40018 19.6531 2.37559 15.6285 2.37559 10.681C2.37559 5.73359 6.40018 1.70896 11.3476 1.70896C16.2951 1.70896 20.3197 5.73359 20.3197 10.681C20.3197 15.6285 16.2951 19.6531 11.3476 19.6531Z" fill="#222222"/>
<path d="M14.3212 10.0746L10.4418 6.19525C10.1086 5.862 9.56598 5.862 9.23273 6.19525C8.89948 6.5285 8.89948 7.0711 9.23273 7.40435L12.5139 10.6855L9.23273 13.9668C8.89948 14.3 8.89948 14.8426 9.23273 15.1758C9.39935 15.3425 9.61725 15.4279 9.83514 15.4279C10.053 15.4279 10.2709 15.3425 10.4376 15.1758L14.3169 11.2965C14.4835 11.1299 14.569 10.9077 14.569 10.6898C14.569 10.4634 14.4878 10.2412 14.3212 10.0746Z" fill="#222222"/>
</svg>
